<svg width="75" height="16" viewBox="0 0 75 16" fill="none" xmlns="http://www.w3.org/2000/svg">
<path d="M2.86932 0.954545L6.91761 12.8011H7.08097L11.1293 0.954545H13.5014L8.26705 15.5H5.73153L0.497159 0.954545H2.86932ZM19.0394 15.7202C17.9646 15.7202 17.0389 15.4905 16.2624 15.0312C15.4906 14.5672 14.8941 13.9162 14.4727 13.0781C14.056 12.2353 13.8477 11.2481 13.8477 10.1165C13.8477 8.99905 14.056 8.0142 14.4727 7.16193C14.8941 6.30966 15.4812 5.64441 16.234 5.16619C16.9916 4.68797 17.877 4.44886 18.8903 4.44886C19.5058 4.44886 20.1024 4.55066 20.68 4.75426C21.2577 4.95786 21.7762 5.27746 22.2354 5.71307C22.6947 6.14867 23.0569 6.71449 23.3221 7.41051C23.5872 8.1018 23.7198 8.94223 23.7198 9.93182V10.6847H15.0479V9.09375H21.6388C21.6388 8.53504 21.5252 8.04025 21.2979 7.60938C21.0707 7.17377 20.7511 6.83049 20.3391 6.57955C19.9319 6.3286 19.4537 6.20312 18.9045 6.20312C18.3079 6.20312 17.7871 6.34991 17.342 6.64347C16.9016 6.93229 16.5607 7.31108 16.3192 7.77983C16.0825 8.24384 15.9641 8.74811 15.9641 9.29261V10.5355C15.9641 11.2647 16.092 11.8849 16.3477 12.3963C16.6081 12.9077 16.9703 13.2983 17.4343 13.5682C17.8983 13.8333 18.4405 13.9659 19.0607 13.9659C19.4632 13.9659 19.8301 13.9091 20.1616 13.7955C20.493 13.6771 20.7795 13.5019 21.021 13.2699C21.2624 13.0379 21.4471 12.7514 21.5749 12.4105L23.5849 12.7727C23.4239 13.3646 23.1351 13.883 22.7184 14.3281C22.3065 14.7685 21.788 15.1117 21.163 15.358C20.5427 15.5994 19.8349 15.7202 19.0394 15.7202ZM28.1996 9.02273V15.5H26.076V4.59091H28.1143V6.36648H28.2493C28.5002 5.78883 28.8932 5.32481 29.4283 4.97443C29.968 4.62405 30.6475 4.44886 31.4666 4.44886C32.21 4.44886 32.861 4.60511 33.4197 4.91761C33.9785 5.22538 34.4117 5.68466 34.7195 6.29545C35.0272 6.90625 35.1811 7.66146 35.1811 8.56108V15.5H33.0575V8.81676C33.0575 8.02604 32.8516 7.40814 32.4396 6.96307C32.0277 6.51326 31.4619 6.28835 30.7422 6.28835C30.2498 6.28835 29.8118 6.39489 29.4283 6.60795C29.0495 6.82102 28.7488 7.13352 28.5263 7.54545C28.3085 7.95265 28.1996 8.44508 28.1996 9.02273ZM43.1214 4.59091V6.29545H37.1626V4.59091H43.1214ZM38.7607 1.97727H40.8842V12.2969C40.8842 12.7088 40.9458 13.0189 41.0689 13.2273C41.192 13.4309 41.3506 13.5705 41.5447 13.6463C41.7436 13.7173 41.959 13.7528 42.1911 13.7528C42.3615 13.7528 42.5107 13.741 42.6385 13.7173C42.7663 13.6937 42.8658 13.6747 42.9368 13.6605L43.3203 15.4148C43.1972 15.4621 43.022 15.5095 42.7947 15.5568C42.5675 15.6089 42.2834 15.6373 41.9425 15.642C41.3838 15.6515 40.8629 15.5521 40.38 15.3438C39.897 15.1354 39.5064 14.8134 39.2081 14.3778C38.9098 13.9422 38.7607 13.3954 38.7607 12.7372V1.97727ZM52.381 10.9759V4.59091H54.5117V15.5H52.4237V13.6108H52.31C52.0591 14.1932 51.6566 14.6785 51.1026 15.0668C50.5534 15.4503 49.8692 15.642 49.0501 15.642C48.3493 15.642 47.729 15.4882 47.1893 15.1804C46.6542 14.8679 46.2328 14.4062 45.9251 13.7955C45.622 13.1847 45.4705 12.4295 45.4705 11.5298V4.59091H47.5941V11.2741C47.5941 12.0175 47.8001 12.6094 48.212 13.0497C48.6239 13.4901 49.159 13.7102 49.8171 13.7102C50.2148 13.7102 50.6102 13.6108 51.0032 13.4119C51.4009 13.2131 51.73 12.9124 51.9904 12.5099C52.2556 12.1075 52.3858 11.5961 52.381 10.9759ZM57.3651 15.5V4.59091H59.4176V6.32386H59.5312C59.7301 5.73674 60.0805 5.27509 60.5824 4.93892C61.089 4.59801 61.6619 4.42756 62.3011 4.42756C62.4337 4.42756 62.59 4.43229 62.7699 4.44176C62.9545 4.45123 63.099 4.46307 63.2031 4.47727V6.50852C63.1179 6.48485 62.9664 6.45881 62.7486 6.4304C62.5308 6.39725 62.313 6.38068 62.0952 6.38068C61.5933 6.38068 61.1458 6.48722 60.7528 6.70028C60.3646 6.90862 60.0568 7.19981 59.8295 7.57386C59.6023 7.94318 59.4886 8.36458 59.4886 8.83807V15.5H57.3651ZM69.3519 15.7202C68.2771 15.7202 67.3514 15.4905 66.5749 15.0312C65.8031 14.5672 65.2066 13.9162 64.7852 13.0781C64.3685 12.2353 64.1602 11.2481 64.1602 10.1165C64.1602 8.99905 64.3685 8.0142 64.7852 7.16193C65.2066 6.30966 65.7937 5.64441 66.5465 5.16619C67.3041 4.68797 68.1895 4.44886 69.2028 4.44886C69.8183 4.44886 70.4149 4.55066 70.9925 4.75426C71.5702 4.95786 72.0887 5.27746 72.5479 5.71307C73.0072 6.14867 73.3694 6.71449 73.6346 7.41051C73.8997 8.1018 74.0323 8.94223 74.0323 9.93182V10.6847H65.3604V9.09375H71.9513C71.9513 8.53504 71.8377 8.04025 71.6104 7.60938C71.3832 7.17377 71.0636 6.83049 70.6516 6.57955C70.2444 6.3286 69.7662 6.20312 69.217 6.20312C68.6204 6.20312 68.0996 6.34991 67.6545 6.64347C67.2141 6.93229 66.8732 7.31108 66.6317 7.77983C66.395 8.24384 66.2766 8.74811 66.2766 9.29261V10.5355C66.2766 11.2647 66.4045 11.8849 66.6602 12.3963C66.9206 12.9077 67.2828 13.2983 67.7468 13.5682C68.2108 13.8333 68.753 13.9659 69.3732 13.9659C69.7757 13.9659 70.1426 13.9091 70.4741 13.7955C70.8055 13.6771 71.092 13.5019 71.3335 13.2699C71.5749 13.0379 71.7596 12.7514 71.8874 12.4105L73.8974 12.7727C73.7364 13.3646 73.4476 13.883 73.0309 14.3281C72.619 14.7685 72.1005 15.1117 71.4755 15.358C70.8552 15.5994 70.1474 15.7202 69.3519 15.7202Z" fill="black"/>
</svg>
